<svg width="36" height="36" viewBox="0 0 36 36" fill="none" xmlns="http://www.w3.org/2000/svg">
  <path d="M18 3C9.71573 3 3 9.71573 3 18C3 26.2843 9.71573 33 18 33C26.2843 33 33 26.2843 33 18C33 9.71573 26.2843 3 18 3Z" stroke="#F97316" stroke-width="3"/>
  <path d="M25.5 13.5L22.5 22.5L13.5 25.5L16.5 16.5L25.5 13.5Z" fill="#F97316"/>
  <path d="M18 12C19.6569 12 21 10.6569 21 9C21 7.34315 19.6569 6 18 6C16.3431 6 15 7.34315 15 9C15 10.6569 16.3431 12 18 12Z" fill="#F97316"/>
  <path d="M27 18C27 19.6569 25.6569 21 24 21C22.3431 21 21 19.6569 21 18C21 16.3431 22.3431 15 24 15C25.6569 15 27 16.3431 27 18Z" fill="#F97316"/>
  <path d="M18 30C19.6569 30 21 28.6569 21 27C21 25.3431 19.6569 24 18 24C16.3431 24 15 25.3431 15 27C15 28.6569 16.3431 30 18 30Z" fill="#F97316"/>
  <path d="M12 18C12 19.6569 10.6569 21 9 21C7.34315 21 6 19.6569 6 18C6 16.3431 7.34315 15 9 15C10.6569 15 12 16.3431 12 18Z" fill="#F97316"/>
</svg>